<?xml version="1.0" encoding="UTF-8" standalone="no"?>
<!DOCTYPE svg PUBLIC "-//W3C//DTD SVG 1.1//EN" "http://www.w3.org/Graphics/SVG/1.1/DTD/svg11.dtd">
<svg width="100%" height="100%" viewBox="0 0 244 244" version="1.1" xmlns="http://www.w3.org/2000/svg" xmlns:xlink="http://www.w3.org/1999/xlink" xml:space="preserve" xmlns:serif="http://www.serif.com/" style="fill-rule:evenodd;clip-rule:evenodd;stroke-linejoin:round;stroke-miterlimit:2;">
    <g>
        <rect id="canvas_background" x="-1" y="-1" width="582" height="402" style="fill:none;"/>
    </g>
    <g transform="matrix(1.71091,0,0,1.71091,-86.3194,-95.0155)">
        <g id="g849">
            <path id="path847" d="M162,88.445C159.966,83.879 158.071,74.858 152.855,72.852C146.14,70.27 141.989,87.174 141,91.445L140,91.445C138.307,84.127 136.035,73.755 128,71.445C124.28,87.069 131.886,103.924 139,117.445C146.596,113.815 150.297,102.447 151,94.445L152,94.445L160,118.445C166.436,116.595 168.675,110.226 170.999,104.445C175.988,92.037 180.174,76.777 177,63.445C167.395,66.165 164.473,79.9 162,88.445M66,120.445C74.595,116.341 78.685,103.351 80,94.445L81,94.445C82.017,98.738 84.736,109.813 90.1,110.524C96.934,111.428 100.517,96.264 101,91.445L102,91.445C104.179,98.974 106.475,108.765 114,112.445C116.776,100.785 113.452,88.35 109.188,77.445C108.092,74.641 105.841,67.081 101.975,67.081C95.641,67.081 92.08,83.777 91,88.445L90,88.445L82,64.445C67.928,71.165 60.284,106.898 66,120.445M51,132.445C61.443,177.996 109.612,203.819 153,184.583C168.791,177.582 181.317,165.108 188.539,149.445C190.405,145.398 194.07,138.073 191.933,132.763C189.805,127.474 169.166,136.116 164.009,138.373C163.285,138.695 162.774,139.363 162.655,140.147C162.486,141.256 162.786,142.386 163.485,143.265C164.183,144.144 165.216,144.692 166.335,144.778C170.116,145.069 175,145.445 175,145.445C159.313,175.81 116.899,189.236 87,164.977C80.308,159.548 74.338,153.097 70.32,145.445C68.377,141.745 66.575,137.013 63.272,134.474C60.099,132.034 55.285,131.198 51,132.445L51,132.445Z" style="fill:rgb(107,114,128);fill-rule:nonzero;"/>
        </g>
    </g>
</svg>
